<mxfile host="app.diagrams.net" modified="2020-11-11T08:03:51.514Z" agent="5.0 (Macintosh; Intel Mac OS X 10_15_5) AppleWebKit/537.36 (KHTML, like Gecko) Chrome/83.0.4103.116 Safari/537.36 Edg/83.0.478.61" etag="oUj_-nJUv7EdAuzlTK0B" version="13.8.8" type="github">
  <diagram id="Urer-kFmr1QgFyKzUlBZ" name="第 1 页">
    <mxGraphModel dx="1186" dy="689" grid="1" gridSize="10" guides="1" tooltips="1" connect="1" arrows="1" fold="1" page="1" pageScale="1" pageWidth="827" pageHeight="1169" math="0" shadow="0">
      <root>
        <mxCell id="0" />
        <mxCell id="1" parent="0" />
        <mxCell id="Mp4qXqp-mxtY_3-uqlNg-4" value="栈" style="rounded=0;whiteSpace=wrap;html=1;fontSize=17;" vertex="1" parent="1">
          <mxGeometry x="60" y="50" width="170" height="630" as="geometry" />
        </mxCell>
        <mxCell id="Mp4qXqp-mxtY_3-uqlNg-1" value="t引用" style="rounded=0;whiteSpace=wrap;html=1;fontSize=17;" vertex="1" parent="1">
          <mxGeometry x="70" y="90" width="120" height="60" as="geometry" />
        </mxCell>
        <mxCell id="Mp4qXqp-mxtY_3-uqlNg-2" value="_t引用" style="rounded=0;whiteSpace=wrap;html=1;fontSize=17;" vertex="1" parent="1">
          <mxGeometry x="70" y="180" width="120" height="60" as="geometry" />
        </mxCell>
        <mxCell id="Mp4qXqp-mxtY_3-uqlNg-5" value="堆" style="rounded=0;whiteSpace=wrap;html=1;fontSize=17;" vertex="1" parent="1">
          <mxGeometry x="320" y="50" width="160" height="630" as="geometry" />
        </mxCell>
        <mxCell id="Mp4qXqp-mxtY_3-uqlNg-3" value="t对象" style="rounded=0;whiteSpace=wrap;html=1;fontSize=17;" vertex="1" parent="1">
          <mxGeometry x="340" y="90" width="120" height="60" as="geometry" />
        </mxCell>
        <mxCell id="Mp4qXqp-mxtY_3-uqlNg-6" style="edgeStyle=orthogonalEdgeStyle;rounded=0;orthogonalLoop=1;jettySize=auto;html=1;entryX=0;entryY=0.5;entryDx=0;entryDy=0;fontSize=17;" edge="1" parent="1" source="Mp4qXqp-mxtY_3-uqlNg-1" target="Mp4qXqp-mxtY_3-uqlNg-3">
          <mxGeometry relative="1" as="geometry" />
        </mxCell>
        <mxCell id="Mp4qXqp-mxtY_3-uqlNg-15" style="edgeStyle=orthogonalEdgeStyle;rounded=0;orthogonalLoop=1;jettySize=auto;html=1;fontSize=17;" edge="1" parent="1" source="Mp4qXqp-mxtY_3-uqlNg-7" target="Mp4qXqp-mxtY_3-uqlNg-3">
          <mxGeometry relative="1" as="geometry" />
        </mxCell>
        <mxCell id="Mp4qXqp-mxtY_3-uqlNg-7" value="_t对象" style="rounded=0;whiteSpace=wrap;html=1;fontSize=17;" vertex="1" parent="1">
          <mxGeometry x="340" y="180" width="120" height="60" as="geometry" />
        </mxCell>
        <mxCell id="Mp4qXqp-mxtY_3-uqlNg-8" style="edgeStyle=orthogonalEdgeStyle;rounded=0;orthogonalLoop=1;jettySize=auto;html=1;fontSize=17;" edge="1" parent="1" source="Mp4qXqp-mxtY_3-uqlNg-2" target="Mp4qXqp-mxtY_3-uqlNg-7">
          <mxGeometry relative="1" as="geometry" />
        </mxCell>
        <mxCell id="Mp4qXqp-mxtY_3-uqlNg-9" value="test2方法内" style="rounded=0;whiteSpace=wrap;html=1;fontSize=17;" vertex="1" parent="1">
          <mxGeometry x="70" y="390" width="120" height="30" as="geometry" />
        </mxCell>
        <mxCell id="Mp4qXqp-mxtY_3-uqlNg-10" value="t引用" style="rounded=0;whiteSpace=wrap;html=1;fontSize=17;" vertex="1" parent="1">
          <mxGeometry x="70" y="430" width="120" height="60" as="geometry" />
        </mxCell>
        <mxCell id="Mp4qXqp-mxtY_3-uqlNg-12" value="t = _t之后" style="rounded=0;whiteSpace=wrap;html=1;fontSize=17;" vertex="1" parent="1">
          <mxGeometry x="70" y="510" width="120" height="60" as="geometry" />
        </mxCell>
        <mxCell id="Mp4qXqp-mxtY_3-uqlNg-13" value="t引用" style="rounded=0;whiteSpace=wrap;html=1;fontSize=17;" vertex="1" parent="1">
          <mxGeometry x="70" y="585" width="120" height="60" as="geometry" />
        </mxCell>
        <mxCell id="Mp4qXqp-mxtY_3-uqlNg-16" value="" style="endArrow=classic;html=1;fontSize=17;" edge="1" parent="1" source="Mp4qXqp-mxtY_3-uqlNg-13" target="Mp4qXqp-mxtY_3-uqlNg-7">
          <mxGeometry width="50" height="50" relative="1" as="geometry">
            <mxPoint x="390" y="380" as="sourcePoint" />
            <mxPoint x="440" y="330" as="targetPoint" />
          </mxGeometry>
        </mxCell>
        <mxCell id="Mp4qXqp-mxtY_3-uqlNg-17" value="" style="endArrow=classic;html=1;fontSize=17;" edge="1" parent="1" source="Mp4qXqp-mxtY_3-uqlNg-10" target="Mp4qXqp-mxtY_3-uqlNg-3">
          <mxGeometry width="50" height="50" relative="1" as="geometry">
            <mxPoint x="390" y="380" as="sourcePoint" />
            <mxPoint x="440" y="330" as="targetPoint" />
          </mxGeometry>
        </mxCell>
      </root>
    </mxGraphModel>
  </diagram>
</mxfile>
